<svg xmlns="http://www.w3.org/2000/svg" width="733" height="733" viewBox="0 0 733 733">
  <defs>
    <style>
      .cls-1 {
        fill-rule: evenodd;
      }
    </style>
  </defs>
  <path id="trapezius" class="cls-1" d="M378.783,56.938s-10.405,31.487,1,74c8.2,37.931,17.291,65.38,47,88,15.106,9.753,45.173,31.786,51,34,38.534,12.565,68.854,31.114,94,35,11.247,0.985,27.341,14.2,28,15s-0.062,13.941-1,16-14.081,21.747-46,41c-27.887,24.2-50,43-50,43s8.379,4.81,17,2-51.437,66.91-65,91c-6.563,23.158-76.942,154.537-77,158s-31.45,51.4-36,75c-7.721,11.155-4-11-4-11s1.136-25.856-3-31,2.574-18.757,3-20-3.06-23.973-4-27,1.671-10.825,5-19c-1.306-14.76-5.523-17.823-5-23s4-14,4-14,0.648-17.746-3-23c-0.45-5.629,1-17,1-17s-1.326-15.5-2-18-1.158-13.677,0-20-5-18-5-18,0.056-21.561,1-24-1.446-8.765-3-10,5.1-17.931,2-26-3.3-23.987,1-33c0.813-14.51-4-23-4-23s2.485-15.457,2-23-3.866-8.3-3-18,5.768-20.927,3-26-4.3-17.6,1-22-1.248-16.068-1-27,7.522-14.041,7-20,4.595-21.89,3-48c1.088-27.329,7.911-113.977,9-121,0.468-3.4,8.183-2.564,8-12,5.3-6.746,23.284-3.323,25-1A1.75,1.75,0,0,1,378.783,56.938Z"/>
  <path id="supraespinatus" class="cls-1" d="M208.783,319.937s-12.487,12.389-46,8c-17.14-2.049-42.383-16.535-88-9-2.2,8.559,23.265,18.238,31,21s37.7,22.6,54,36c18.79,12.813,37.113,22.2,52,11S217.847,335.141,208.783,319.937Z"/>
  <path id="splenius-cervicis" class="cls-1" d="M278.783,176.937s7,17.9,9,25,8.506,26.514,9,30c1.458,4.162,5.819,16.153,6,17-1.325,5.929-13.357,17.876-16,24-3.471,5.836-17,30-17,30s-7.064,16.533-8,18-60.32,98.28-8-1c2.96-6.6,14.468-46.325,14-44s10.278-37.485,10-56c1.031-7.607-2.525-39.23-3-41S273.374,164.407,278.783,176.937Z"/>
  <path id="splenius-capitis" class="cls-1" d="M282.783,53.938s3.63,18.949,17,34c12.085,14.7,22,35,22,35l10,19s-0.226,13.528-2,19c-0.049,1.8-.214,4.987-0.444,8.878-0.14,9.279-2.556,38.122-2.556,38.122s-0.349,16.61-14,32c-0.943.912-5.649,9.532-9,9-2.7-7.138-3.992-8.4-7-21-7.07-21.549-17.22-52.213-18-54s-10.5-27.54-34-68c-3.443-5.98-10-22-10-22s-2.954-2.912,9-10,19.013-12.914,27-16S278.413,52.6,282.783,53.938Z"/>
  <path id="levator-scapulae" class="cls-1" d="M263.783,164.937s-11,40.8-12,44-11.7,44.468-13,47-14.7,40.461-18,46-7.746,15.236-11,17c0.213,2.805,5.426,13.225,6,15s7.069,15.2,5,39c-0.449,5.169,3.066,1.456,4-1s11.752-21.4,13-25,12.663-18.627,17-32c2.74-8.447,8.937-28.022,10-32s8.817-32.462,10-50c0.442-6.545,3.868-30.275-1-55C270.975,163.677,264.921,145.022,263.783,164.937Z"/>
  <path id="deltoid" class="cls-1" d="M579.783,285.937s7.276-11.061,41-9c9.621,0.588,25.119,3.177,34,6s23.941,9.51,25,11,0.847,13.421,2,19,12,17,12,17,10.128,15.742,11,19,4.94,29.334,5,32,1.835,13.971-21,20c-15.519,6.148-12,19-12,19s15.182,10.751,23,16c0.266,8.79,1.846,11.76,2,17-1.734,2.055-4-.562-9,7-11.613.247-28.545-4.694-33-6s-27.673.662-34,0-17.994.555-46-6-63.043-13.3-77-10c-9.385,1.982,27.616-41.325,32-44,5.439-4.521,13.534-16.842,29-22,13.619-10.609,29.407-14.2,50-19,6.085-4.269,16.99-7.814,18-22,3.032-7.415,8.659-12.8,12-16s-0.35-15.2-8-19S587.784,286.2,579.783,285.937Z"/>
  <path id="Left-infraespinatus" class="cls-1" d="M581.783,449.937s-18.894,41.542-23,47c-3.718,6.767-25.312,57.932-46,70-19.373,2.859-42,1-42,1s-22.1-28.105-22-36,1.62-29.545,21-55c6.9-9.126,15.2-22.915,26-34,2.144-.77,6.918-6.6,27-4C534.524,439.346,576.425,447.868,581.783,449.937Z"/>
  <path id="Left-teres-major" class="cls-1" d="M582.783,450.937s22.311,1.359,33,7c-4.048,10.658-26,43-26,43s-25.05,34.369-33,41-14.2,15.736-40,24a2.963,2.963,0,0,1,0-2s14.525-11.725,26-34c5.8-9.421,17.6-36.274,22-42S578.158,456.111,582.783,450.937Z"/>
  <path id="Right-teres-major" class="cls-1" d="M66.783,457.937s-12.295-1.48-22,11c4.863,7.531,36.06,49,51,63,17.957,17.088,32.781,21.08,46,35,7.325,1.152,9,0,9,0a61.713,61.713,0,0,0-9-10c-5.48-4.864-15.984-13.395-21-23s-15.758-26.648-26-38C88.864,487.01,70.684,461.219,66.783,457.937Z"/>
  <path id="Right-infraespinatus" class="cls-1" d="M42.783,342.937s0.417-4.188,34,6c12.079,4.932,22.364,6.679,34,19s17.266,18.919,20,20a134.04,134.04,0,0,0,33,9c18.845,3.913,22.672,10.347,27,20s4.091,31.752,4,39-7.869,36.739-11,45-10.9,34.33-14,41-7.888,18.619-16,25c-1.54.758-28-26-28-26s-13.6-22.627-18-29-25.3-32.341-29-40-12.359-13.045-18-26,1-9,1-9,2.872,8.044,5,11-0.785-19.463,0-19-0.957-29.656,4-39c-2.619-4.825-10-9-10-9s-8.216-5.905-10-16c-2.826.054-9-2-9-2s-0.236-1.9,7-1C46.15,357.693,45.077,356.421,42.783,342.937Z"/>
  <path id="rhomboid-minor" class="cls-1" d="M318.783,235.937s-9.232,6.714-31,38c-3.528,5.071-19.029,33.013-23,42s-20.806,34.468-22,37-16.489,22.543-24,28c-3.163,7.36-9.752,42.356-13,47-2.336,5.6-5.75,16.124-6,22,11.644-10.119,26-28,26-28s27.468-32.721,35-46c18.036-27.124,27.726-45.345,33-58s17.037-34.849,24-37c0.453-4.221,1.2-12.138,3-16,1.008-5.87,0-16,0-16s-1.761-12.014,0-13h-2Z"/>
  <path id="rhomboid-major" class="cls-1" d="M158.783,566.937s28.716-36.578,32-55,4.917-25.173,9-60c12.071-10.612,43-48,43-48s13.177-16.864,17-24c6.492-8.765,16-24,16-24s20.149-39.89,22-43c1.5-3.764,3.727-12.123,12-22,1.508-4.382,4.825-8.116,8-9,0,2.293,1,10,1,10s-5.712,16.378-1,28c2.227,5.753-2.52,19.1-2,22-1.171,3.073-1.538,15.7,4,23a45.83,45.83,0,0,1-3,20,26.162,26.162,0,0,0,2,21c-12.964,16.252-23.531,39.944-31,48-8.182,14.235-54.685,61.5-65,69S173.873,562.3,158.783,566.937Z"/>
  <path id="semispinalis-capitis" class="cls-1" d="M335.783,60.938s-18.012-19.287-51-7c-0.629,1.484,1.188,9.967,3,14s14.879,23.46,19,28,12.92,20.719,15,25,6.874,12.712,9,18,4.787-18.523,5-23S337.353,70.691,335.783,60.938Z"/>
  <path id="sternocleidomastoid" class="cls-1" d="M384.783,59.938s-1.044-2.886,5-2,41.446,1.43,46,13-5,41-5,41-10.2,45.07-10,49-2.9,42.04-3,45,0.41,9.048-6,0-5.29-27.231-7-34-5.188-48.7-5-53-4.081-41.164-7-46C391.665,66.9,387.585,63.74,384.783,59.938Z"/>
  <path id="serrratus-posterior" class="cls-1" d="M224.783,582.937s65.165,30.5,71,54,16.371,49.974,11,96c-40.765.136-101,0-101,0s20.459-16.176,28-18,0-7,0-7-14.853-8.828-23-8,20.005-13.44,12-31c7.017-1.919,9-1,9-1s-18.712-11.82-30-11,11.044-10.769,22-29c-12.5-7.323-34.983-12.824-40-11S216.14,600.635,224.783,582.937Z"/>
  <path id="serratus-anterior" class="cls-1" d="M160.783,569.937s0.521,9.167-36,66c-3.141-1.467-6.8,4.129-20-43-3.823-6.276-8-13-8-13a35.807,35.807,0,0,0,3-6c-0.147-6.014-2-7-2-7a20.932,20.932,0,0,1,2-6c1.4-2.392-3-5-3-5s1.813-5.8-1-9c0.463-2.882,0-10,0-10s2.111-5.052,11,6c11.157,7.273,21,13,21,13s10.974,8.324,12,11S154.861,566.661,160.783,569.937Z"/>
  <path id="Forma_1" data-name="Forma 1" class="cls-1" d="M340.783,732.938s14.57-39.353,20-45,42.35-82.2,46-88,8.382-26.825,30-28c16.735-2.33,38.911-4.568,62-3,10.08-1.248,27.328-2.675,37-10s27.789-17.167,41-40c7.319-7.68,39.107-55.373,40-62,0.782-.831,4.577-1.1,4,2-1.647,3.156-14.3,27.406-17,33s-13.463,29.373-30,53-23.88,50.671-25,55a140.429,140.429,0,0,0-6,42c0.253,22.206-9,91-9,91h-193Z"/>
</svg>
